<svg xmlns="http://www.w3.org/2000/svg" width="1100" height="420" viewBox="0 0 1100 420" role="img" aria-label="TradeCharts Attest architecture">
  <rect width="1100" height="420" rx="16" fill="#080809"/>
  <rect x="0.75" y="0.75" width="1098.5" height="418.5" rx="15" fill="none" stroke="#2a2a2e"/>
  <text x="36" y="36" font-family="ui-monospace, SFMono-Regular, Menlo, Consolas, monospace" font-size="11" letter-spacing="3" fill="#c4a06a">ETHONLINE 2026 · CONTINUITY</text>
  <text x="36" y="64" font-family="Georgia, Times New Roman, serif" font-size="22" fill="#ecece8">The map is the stop</text>
  <rect x="36" y="88" width="240" height="72" rx="10" fill="#111114" stroke="#3a342c"/>
  <text x="156" y="118" text-anchor="middle" font-family="ui-sans-serif, Segoe UI, sans-serif" font-size="13" fill="#8b8b86">Live desk</text>
  <text x="156" y="140" text-anchor="middle" font-family="ui-sans-serif, Segoe UI, sans-serif" font-size="12" fill="#ecece8">tradecharts.app</text>
  <rect x="316" y="88" width="200" height="72" rx="10" fill="#111114" stroke="#3dbe8c" stroke-opacity="0.45"/>
  <text x="416" y="118" text-anchor="middle" font-family="ui-sans-serif, Segoe UI, sans-serif" font-size="13" fill="#8b8b86">This repo</text>
  <text x="416" y="140" text-anchor="middle" font-family="ui-sans-serif, Segoe UI, sans-serif" font-size="12" fill="#ecece8">compose · subgraph · cre</text>
  <line x1="276" y1="124" x2="316" y2="124" stroke="#c4a06a" stroke-width="1.4"/>
  <rect x="36" y="188" width="200" height="56" rx="8" fill="#111114" stroke="#2a2a2e"/>
  <text x="136" y="222" text-anchor="middle" font-family="ui-sans-serif, Segoe UI, sans-serif" font-size="13" fill="#ecece8">Standardized bag</text>
  <rect x="256" y="188" width="200" height="56" rx="8" fill="#111114" stroke="#2a2a2e"/>
  <text x="356" y="222" text-anchor="middle" font-family="ui-sans-serif, Segoe UI, sans-serif" font-size="13" fill="#ecece8">Maps subgraph</text>
  <rect x="476" y="188" width="200" height="56" rx="8" fill="#111114" stroke="#c4a06a" stroke-opacity="0.5"/>
  <text x="576" y="222" text-anchor="middle" font-family="ui-sans-serif, Segoe UI, sans-serif" font-size="13" fill="#ecece8">compose.ts join</text>
  <rect x="716" y="188" width="160" height="56" rx="8" fill="#111114" stroke="#2a2a2e"/>
  <text x="796" y="222" text-anchor="middle" font-family="ui-sans-serif, Segoe UI, sans-serif" font-size="13" fill="#ecece8">CRE TEE</text>
  <rect x="900" y="188" width="164" height="56" rx="8" fill="#111114" stroke="#2a2a2e"/>
  <text x="982" y="222" text-anchor="middle" font-family="ui-sans-serif, Segoe UI, sans-serif" font-size="13" fill="#ecece8">Ledger</text>
  <line x1="236" y1="216" x2="256" y2="216" stroke="#5c5c58"/>
  <line x1="456" y1="216" x2="476" y2="216" stroke="#5c5c58"/>
  <line x1="676" y1="216" x2="716" y2="216" stroke="#5c5c58"/>
  <line x1="876" y1="216" x2="900" y2="216" stroke="#5c5c58"/>
  <text x="36" y="280" font-family="ui-monospace, SFMono-Regular, Menlo, Consolas, monospace" font-size="11" letter-spacing="2" fill="#c4a06a">THE GRAPH</text>
  <text x="36" y="302" font-family="ui-sans-serif, Segoe UI, sans-serif" font-size="13" fill="#8b8b86">Two live products. Join is the decision — aligned / fighting / unmapped.</text>
  <text x="36" y="338" font-family="ui-monospace, SFMono-Regular, Menlo, Consolas, monospace" font-size="11" letter-spacing="2" fill="#c4a06a">CHAINLINK</text>
  <text x="36" y="360" font-family="ui-sans-serif, Segoe UI, sans-serif" font-size="13" fill="#8b8b86">Confidential Workflow is flatten. Same run writes onchain. Not a price ticker.</text>
  <text x="36" y="396" font-family="ui-monospace, SFMono-Regular, Menlo, Consolas, monospace" font-size="11" letter-spacing="2" fill="#c4a06a">LEDGER</text>
  <text x="36" y="418" font-family="ui-sans-serif, Segoe UI, sans-serif" font-size="13" fill="#8b8b86">Device confirm after the TEE, before funds. Kill is a weekly close.</text>
</svg>
